SRRun01_grf
version=1
nRows=34
nColumns=19
inDegrees=no
endheader
time	ground_force_r_vx	ground_force_r_vy	ground_force_r_vz	ground_force_r_px	ground_force_r_py	ground_force_r_pz	ground_force_r_mx	ground_force_r_my	ground_force_r_mz	ground_force_l_vx	ground_force_l_vy	ground_force_l_vz	ground_force_l_px	ground_force_l_py	ground_force_l_pz	ground_force_l_mx	ground_force_l_my	ground_force_l_mz
    147.49900000	   -215.29471223	   1266.92213747	    -15.06551495	      0.96587655	      0.00000000	     -0.31207340	      0.00001959	     17.95634650	      0.00006004	      0.00000000	      0.00000000	      0.00000000	      0.00000000	      0.00000000	      0.00000000	      0.00000000	      0.00000000	      0.00000000
    147.50000000	   -206.62512791	   1277.66317598	    -37.46603875	      0.96589668	      0.00000000	     -0.31341001	      0.00002005	      9.82535267	      0.00005966	      0.00000000	      0.00000000	      0.00000000	      0.00000000	      0.00000000	      0.00000000	      0.00000000	      0.00000000	      0.00000000
    147.50100000	   -195.01149952	   1287.53232967	    -52.76066986	      0.96532009	      0.00000000	     -0.31445152	      0.00002050	     -0.28183731	      0.00005889	      0.00000000	      0.00000000	      0.00000000	      0.00000000	      0.00000000	      0.00000000	      0.00000000	      0.00000000	      0.00000000
    147.50200000	   -181.98051780	   1296.63169383	    -60.31787909	      0.96413888	      0.00000000	     -0.31517080	      0.00002099	    -11.59917520	      0.00005781	      0.00000000	      0.00000000	      0.00000000	      0.00000000	      0.00000000	      0.00000000	      0.00000000	      0.00000000	      0.00000000
    147.50300000	   -169.12260479	   1305.07510470	    -59.99849961	      0.96238041	      0.00000000	     -0.31555591	      0.00002151	    -23.21251651	      0.00005654	      0.00000000	      0.00000000	      0.00000000	      0.00000000	      0.00000000	      0.00000000	      0.00000000	      0.00000000	      0.00000000
    147.50400000	   -157.94807229	   1312.99018435	    -52.13498316	      0.96010703	      0.00000000	     -0.31560901	      0.00002208	    -34.13663897	      0.00005518	      0.00000000	      0.00000000	      0.00000000	      0.00000000	      0.00000000	      0.00000000	      0.00000000	      0.00000000	      0.00000000
    147.50500000	   -149.75263078	   1320.52270750	    -37.48553679	      0.95741361	      0.00000000	     -0.31534511	      0.00002269	    -43.40164599	      0.00005385	      0.00000000	      0.00000000	      0.00000000	      0.00000000	      0.00000000	      0.00000000	      0.00000000	      0.00000000	      0.00000000
    147.50600000	   -145.50483866	   1327.84071462	    -17.16808515	      0.95442196	      0.00000000	     -0.31479074	      0.00002331	    -50.14103865	      0.00005264	      0.00000000	      0.00000000	      0.00000000	      0.00000000	      0.00000000	      0.00000000	      0.00000000	      0.00000000	      0.00000000
    147.50700000	   -145.76590691	   1335.13550245	      7.42070437	      0.95127209	      0.00000000	     -0.31398269	      0.00002392	    -53.67326393	      0.00005161	      0.00000000	      0.00000000	      0.00000000	      0.00000000	      0.00000000	      0.00000000	      0.00000000	      0.00000000	      0.00000000
    147.50800000	   -150.64905740	   1342.61705096	     34.69600004	      0.94811074	      0.00000000	     -0.31296664	      0.00002448	    -53.56893508	      0.00005083	      0.00000000	      0.00000000	      0.00000000	      0.00000000	      0.00000000	      0.00000000	      0.00000000	      0.00000000	      0.00000000
    147.50900000	   -159.82164169	   1350.50282861	     62.97958591	      0.94507809	      0.00000000	     -0.31179568	      0.00002494	    -49.69711308	      0.00005031	      0.00000000	      0.00000000	      0.00000000	      0.00000000	      0.00000000	      0.00000000	      0.00000000	      0.00000000	      0.00000000
    147.51000000	   -172.54887188	   1359.00116124	     90.59355501	      0.94229412	      0.00000000	     -0.31052857	      0.00002528	    -42.24588908	      0.00005006	      0.00000000	      0.00000000	      0.00000000	      0.00000000	      0.00000000	      0.00000000	      0.00000000	      0.00000000	      0.00000000
    147.51100000	   -187.77384107	   1368.29262815	    115.94819743	      0.93984682	      0.00000000	     -0.30922771	      0.00002547	    -31.71481216	      0.00005008	      0.00000000	      0.00000000	      0.00000000	      0.00000000	      0.00000000	      0.00000000	      0.00000000	      0.00000000	      0.00000000
    147.51200000	   -204.22510368	   1378.51406606	    137.62044293	      0.93778439	      0.00000000	     -0.30795693	      0.00002550	    -18.87925509	      0.00005034	      0.00000000	      0.00000000	      0.00000000	      0.00000000	      0.00000000	      0.00000000	      0.00000000	      0.00000000	      0.00000000
    147.51300000	   -220.54084997	   1389.74895484	    154.42047016	      0.93611347	      0.00000000	     -0.30677903	      0.00002539	     -4.72945008	      0.00005082	      0.00000000	      0.00000000	      0.00000000	      0.00000000	      0.00000000	      0.00000000	      0.00000000	      0.00000000	      0.00000000
    147.51400000	   -235.39771294	   1402.02548006	    165.44498661	      0.93480366	      0.00000000	     -0.30575279	      0.00002515	      9.61056181	      0.00005151	      0.00000000	      0.00000000	      0.00000000	      0.00000000	      0.00000000	      0.00000000	      0.00000000	      0.00000000	      0.00000000
    147.51500000	   -247.63231960	   1415.32059757	    170.11594735	      0.93379734	      0.00000000	     -0.30492949	      0.00002480	     22.97677470	      0.00005237	      0.00000000	      0.00000000	      0.00000000	      0.00000000	      0.00000000	      0.00000000	      0.00000000	      0.00000000	      0.00000000
    147.51600000	   -256.34467485	   1429.56651111	    168.20332212	      0.93302212	      0.00000000	     -0.30434904	      0.00002437	     34.26330995	      0.00005338	      0.00000000	      0.00000000	      0.00000000	      0.00000000	      0.00000000	      0.00000000	      0.00000000	      0.00000000	      0.00000000
    147.51700000	   -260.97424339	   1444.65608575	    159.83040082	      0.93240288	      0.00000000	     -0.30403621	      0.00002389	     42.51596114	      0.00005452	      0.00000000	      0.00000000	      0.00000000	      0.00000000	      0.00000000	      0.00000000	      0.00000000	      0.00000000	      0.00000000
    147.51800000	   -261.34210130	   1460.44557131	    145.46047584	      0.93187103	      0.00000000	     -0.30399785	      0.00002336	     47.01313110	      0.00005575	      0.00000000	      0.00000000	      0.00000000	      0.00000000	      0.00000000	      0.00000000	      0.00000000	      0.00000000	      0.00000000
    147.51900000	   -257.65566568	   1476.75532278	    125.86479265	      0.93136976	      0.00000000	     -0.30422177	      0.00002281	     47.32753230	      0.00005703	      0.00000000	      0.00000000	      0.00000000	      0.00000000	      0.00000000	      0.00000000	      0.00000000	      0.00000000	      0.00000000
    147.52000000	   -250.47611854	   1493.37055824	    102.07330607	      0.93085551	      0.00000000	     -0.30467786	      0.00002224	     43.36380756	      0.00005833	      0.00000000	      0.00000000	      0.00000000	      0.00000000	      0.00000000	      0.00000000	      0.00000000	      0.00000000	      0.00000000
    147.52100000	   -240.65243959	   1510.04396019	     75.31155564	      0.93029622	      0.00000000	     -0.30532124	      0.00002164	     35.36917970	      0.00005959	      0.00000000	      0.00000000	      0.00000000	      0.00000000	      0.00000000	      0.00000000	      0.00000000	      0.00000000	      0.00000000
    147.52200000	   -229.22948267	   1526.50076113	     46.92836144	      0.92966756	      0.00000000	     -0.30609697	      0.00002103	     23.91631792	      0.00006077	      0.00000000	      0.00000000	      0.00000000	      0.00000000	      0.00000000	      0.00000000	      0.00000000	      0.00000000	      0.00000000
    147.52300000	   -217.34020490	   1542.44615819	     18.31974328	      0.92894798	      0.00000000	     -0.30694535	      0.00002039	      9.85979371	      0.00006180	      0.00000000	      0.00000000	      0.00000000	      0.00000000	      0.00000000	      0.00000000	      0.00000000	      0.00000000	      0.00000000
    147.52400000	   -206.09353993	   1557.57509540	     -9.14557199	      0.92811386	      0.00000000	     -0.30780669	      0.00001975	     -5.73034232	      0.00006266	      0.00000000	      0.00000000	      0.00000000	      0.00000000	      0.00000000	      0.00000000	      0.00000000	      0.00000000	      0.00000000
    147.52500000	   -196.46937782	   1571.58515072	    -34.19440732	      0.92713589	      0.00000000	     -0.30862506	      0.00001914	    -21.65243608	      0.00006334	      0.00000000	      0.00000000	      0.00000000	      0.00000000	      0.00000000	      0.00000000	      0.00000000	      0.00000000	      0.00000000
    147.52600000	   -189.23088984	   1584.19348385	    -55.70776791	      0.92597815	      0.00000000	     -0.30935076	      0.00001860	    -36.66771479	      0.00006386	      0.00000000	      0.00000000	      0.00000000	      0.00000000	      0.00000000	      0.00000000	      0.00000000	      0.00000000	      0.00000000
    147.52700000	   -184.86233997	   1595.15786007	    -72.76797860	      0.92460045	      0.00000000	     -0.30994165	      0.00001816	    -49.59775684	      0.00006428	      0.00000000	      0.00000000	      0.00000000	      0.00000000	      0.00000000	      0.00000000	      0.00000000	      0.00000000	      0.00000000
    147.52800000	   -183.53778190	   1604.29988748	    -84.69382114	      0.92296397	      0.00000000	     -0.31036409	      0.00001789	    -59.41729171	      0.00006469	      0.00000000	      0.00000000	      0.00000000	      0.00000000	      0.00000000	      0.00000000	      0.00000000	      0.00000000	      0.00000000
    147.52900000	   -185.12276967	   1611.52675635	    -91.06401837	      0.92103849	      0.00000000	     -0.31059354	      0.00001783	    -65.33534336	      0.00006520	      0.00000000	      0.00000000	      0.00000000	      0.00000000	      0.00000000	      0.00000000	      0.00000000	      0.00000000	      0.00000000
    147.53000000	   -189.20758318	   1616.84697132	    -91.72965468	      0.91880937	      0.00000000	     -0.31061526	      0.00001800	    -66.85881699	      0.00006591	      0.00000000	      0.00000000	      0.00000000	      0.00000000	      0.00000000	      0.00000000	      0.00000000	      0.00000000	      0.00000000
    147.53100000	   -195.16691612	   1620.37640022	    -86.81597454	      0.91628273	      0.00000000	     -0.31042478	      0.00001842	    -63.83382817	      0.00006693	      0.00000000	      0.00000000	      0.00000000	      0.00000000	      0.00000000	      0.00000000	      0.00000000	      0.00000000	      0.00000000
    147.53200000	   -202.23810308	   1622.33310755	    -76.71379411	      0.91348774	      0.00000000	     -0.31002810	      0.00001907	    -56.46135226	      0.00006829	      0.00000000	      0.00000000	      0.00000000	      0.00000000	      0.00000000	      0.00000000	      0.00000000	      0.00000000	      0.00000000
